<svg id="Layer_1" data-name="Layer 1" xmlns="http://www.w3.org/2000/svg" viewBox="0 0 32 32"><defs><style>.cls-1{fill:#747987;}</style></defs><title>Baterai Full</title><path class="cls-1" d="M26.27,12.6h-.74V10.29a1,1,0,0,0-1-1H5.73a1,1,0,0,0-1,1V21.71a1,1,0,0,0,1,1h18.8a1,1,0,0,0,1-1V19.4h.74a1,1,0,0,0,1-1V13.6A1,1,0,0,0,26.27,12.6Zm-2.74,8.11H6.73V11.29h16.8Z"/><rect class="cls-1" x="8.5" y="12.6" width="2.99" height="6.79" rx="1"/><rect class="cls-1" x="13.41" y="12.6" width="2.99" height="6.79" rx="1"/><rect class="cls-1" x="18.36" y="12.6" width="2.99" height="6.79" rx="1"/></svg>