<svg id="Layer_1" data-name="Layer 1" xmlns="http://www.w3.org/2000/svg" viewBox="0 0 32 32"><defs><style>.cls-1{fill:#747987;}</style></defs><title>Baterai Empty</title><path class="cls-1" d="M26.27,12.6h-.74V10.29a1,1,0,0,0-1-1H21l1.16-1.73a1,1,0,1,0-1.66-1.12L18.62,9.29H5.73a1,1,0,0,0-1,1V21.71a1,1,0,0,0,1,1H9.6L8.44,24.44a1,1,0,0,0,.27,1.39,1,1,0,0,0,.56.17,1,1,0,0,0,.83-.44L12,22.71H24.53a1,1,0,0,0,1-1V19.4h.74a1,1,0,0,0,1-1V13.6A1,1,0,0,0,26.27,12.6ZM6.73,20.71V11.29H17.28l-6.34,9.42Zm16.8,0H13.35l6.34-9.42h3.84Z"/></svg>