<svg id="Layer_1" data-name="Layer 1" xmlns="http://www.w3.org/2000/svg" viewBox="0 0 32 32"><defs><style>.cls-1{fill:#747987;}</style></defs><title>Bluetooth</title><path class="cls-1" d="M22.88,11.1a1,1,0,0,0-.4-.8L16,5.44a1,1,0,0,0-1-.09,1,1,0,0,0-.55.9V13.9l-3.58-3a1,1,0,1,0-1.29,1.53L13.73,16,9.49,19.41a1,1,0,0,0-.15,1.4,1,1,0,0,0,.78.38,1,1,0,0,0,.63-.23l3.6-2.9v7.69a1,1,0,0,0,.55.9,1.05,1.05,0,0,0,1-.09l6.53-4.86a1,1,0,0,0,0-1.61L17,16l5.51-4.09A1,1,0,0,0,22.88,11.1Zm-2.67,9.8-3.86,2.86V18ZM16.35,14V8.24l3.86,2.86Z"/></svg>