<svg id="Layer_1" data-name="Layer 1" xmlns="http://www.w3.org/2000/svg" viewBox="0 0 32 32"><defs><style>.cls-1{fill:#747987;}</style></defs><title>Book</title><path class="cls-1" d="M23.4,5.27H10.09A2.48,2.48,0,0,0,7.61,7.75L7.63,24a2,2,0,0,0,0,.24,2.48,2.48,0,0,0,2.48,2.48H23.4a1,1,0,0,0,1-1V6.27A1,1,0,0,0,23.4,5.27Zm-13.31,2h.53V21.78h-.54a2.31,2.31,0,0,0-.46,0V7.75A.47.47,0,0,1,10.09,7.27ZM22.4,24.73H10.08a.48.48,0,0,1-.48-.47.53.53,0,0,0,0-.12h0a.46.46,0,0,1,.45-.35H22.4Zm0-2.95H12.62V7.27H22.4Z"/></svg>