<svg id="Layer_1" data-name="Layer 1" xmlns="http://www.w3.org/2000/svg" viewBox="0 0 32 32"><defs><style>.cls-1{fill:#747987;}</style></defs><title>Broadcast</title><path class="cls-1" d="M18.78,13.21A2.78,2.78,0,1,0,15,15.79V27a1,1,0,0,0,2,0V15.79A2.77,2.77,0,0,0,18.78,13.21ZM16,12.43a.78.78,0,1,1-.78.78A.78.78,0,0,1,16,12.43Z"/><path class="cls-1" d="M12.16,13.21a3.84,3.84,0,0,1,1.49-3.05,1,1,0,0,0,.18-1.4,1,1,0,0,0-1.41-.18A5.85,5.85,0,0,0,12,17.47a1,1,0,0,0,.68.27,1,1,0,0,0,.73-.31,1,1,0,0,0,0-1.42A3.78,3.78,0,0,1,12.16,13.21Z"/><path class="cls-1" d="M9.06,13.29A6.61,6.61,0,0,1,11.64,8a1,1,0,0,0,.18-1.4,1,1,0,0,0-1.4-.18A8.63,8.63,0,0,0,9.81,19.6a.93.93,0,0,0,.68.27,1,1,0,0,0,.73-.31,1,1,0,0,0-.05-1.42A6.57,6.57,0,0,1,9.06,13.29Z"/><path class="cls-1" d="M5.94,13.38A9.57,9.57,0,0,1,9.67,5.77,1,1,0,1,0,8.45,4.19a11.54,11.54,0,0,0-4.51,9.19,11.68,11.68,0,0,0,3.68,8.49A1,1,0,0,0,9,21.82a1,1,0,0,0,0-1.41A9.53,9.53,0,0,1,5.94,13.38Z"/><path class="cls-1" d="M19.58,8.58a1,1,0,0,0-1.41.18,1,1,0,0,0,.18,1.4A3.86,3.86,0,0,1,18.63,16a1,1,0,0,0-.05,1.42,1,1,0,0,0,.73.31,1,1,0,0,0,.68-.27,5.85,5.85,0,0,0-.41-8.89Z"/><path class="cls-1" d="M21.58,6.45a1,1,0,0,0-1.4.18A1,1,0,0,0,20.36,8a6.64,6.64,0,0,1,.47,10.11,1,1,0,0,0,0,1.42,1,1,0,0,0,.73.31.93.93,0,0,0,.68-.27,8.63,8.63,0,0,0-.61-13.15Z"/><path class="cls-1" d="M23.55,4.19a1,1,0,0,0-1.22,1.58A9.63,9.63,0,0,1,23,20.41,1,1,0,0,0,23,21.82a1,1,0,0,0,1.42.05,11.68,11.68,0,0,0,3.68-8.49A11.54,11.54,0,0,0,23.55,4.19Z"/></svg>