<svg id="Layer_1" data-name="Layer 1" xmlns="http://www.w3.org/2000/svg" viewBox="0 0 32 32"><defs><style>.cls-1{fill:#747987;}</style></defs><title>Calender</title><path class="cls-1" d="M22.73,7.37H22v-1a1,1,0,0,0-2,0v1H12v-1a1,1,0,0,0-2,0v1H9.27A3.27,3.27,0,0,0,6,10.64V23.33A3.28,3.28,0,0,0,9.27,26.6H22.73A3.28,3.28,0,0,0,26,23.33V10.64A3.27,3.27,0,0,0,22.73,7.37Zm1.27,16a1.27,1.27,0,0,1-1.27,1.27H9.27A1.27,1.27,0,0,1,8,23.33V15.4H24Zm0-9.93H8V10.64A1.27,1.27,0,0,1,9.27,9.37H10v.48a1,1,0,0,0,2,0V9.37h8v.48a1,1,0,0,0,2,0V9.37h.74A1.27,1.27,0,0,1,24,10.64Z"/><path class="cls-1" d="M10.55,18.87h.35a1,1,0,1,0,0-2h-.35a1,1,0,0,0,0,2Z"/><path class="cls-1" d="M13.81,18.87h.68a1,1,0,0,0,0-2h-.68a1,1,0,1,0,0,2Z"/><path class="cls-1" d="M17.4,18.87h.68a1,1,0,0,0,0-2H17.4a1,1,0,0,0,0,2Z"/><path class="cls-1" d="M21,18.87h.35a1,1,0,0,0,0-2H21a1,1,0,0,0,0,2Z"/><path class="cls-1" d="M11,20.61h-.35a1,1,0,0,0,0,2H11a1,1,0,0,0,0-2Z"/><path class="cls-1" d="M14.54,20.61h-.67a1,1,0,1,0,0,2h.67a1,1,0,0,0,0-2Z"/><path class="cls-1" d="M18.13,20.61h-.67a1,1,0,0,0,0,2h.67a1,1,0,0,0,0-2Z"/><path class="cls-1" d="M21.4,20.61h-.35a1,1,0,1,0,0,2h.35a1,1,0,0,0,0-2Z"/></svg>