<svg id="Layer_1" data-name="Layer 1" xmlns="http://www.w3.org/2000/svg" viewBox="0 0 32 32"><defs><style>.cls-1{fill:#747987;}</style></defs><title>Camera</title><path class="cls-1" d="M26,11H23.35L21.48,6.61A1,1,0,0,0,20.56,6h-9.5a1,1,0,0,0-.94.67L8.6,11H6a1,1,0,0,0-1,1V24a1,1,0,0,0,1,1H26a1,1,0,0,0,1-1V12A1,1,0,0,0,26,11ZM25,23H7V13H9.31a1,1,0,0,0,.95-.67L11.77,8H19.9l1.87,4.39a1,1,0,0,0,.92.61H25Z"/><path class="cls-1" d="M15.84,13.43a4.2,4.2,0,1,0,4.2,4.2A4.2,4.2,0,0,0,15.84,13.43Zm0,6.39A2.2,2.2,0,1,1,18,17.63,2.19,2.19,0,0,1,15.84,19.82Z"/><path class="cls-1" d="M21.2,16a1.4,1.4,0,1,0,1.4-1.4A1.41,1.41,0,0,0,21.2,16Z"/><path class="cls-1" d="M13.94,11.49h4.12a1,1,0,0,0,0-2H13.94a1,1,0,0,0,0,2Z"/></svg>