<svg id="Layer_1" data-name="Layer 1" xmlns="http://www.w3.org/2000/svg" viewBox="0 0 32 32"><defs><style>.cls-1{fill:#747987;}</style></defs><title>Chart</title><path class="cls-1" d="M26,25H24.63V17.27a1,1,0,0,0-2,0V25H18.92v-4.6a1,1,0,0,0-2,0V25h-3.7V18.61a1,1,0,0,0-2,0V25H7v-7.9l5.45-3.71,2.39,3a1,1,0,0,0,1.32.21l7.65-5-.09.87a1,1,0,0,0,.9,1.1h.1a1,1,0,0,0,1-.9l.29-3a.81.81,0,0,0,0-.16.76.76,0,0,0,0-.15.94.94,0,0,0-.12-.3,0,0,0,0,1,0,0h0a1,1,0,0,0-.27-.28h0a1,1,0,0,0-.29-.14l-2.84-.77A1,1,0,0,0,22,9.77l.68.19-6.77,4.39-2.41-3a1,1,0,0,0-1.34-.2L7,14.64V6A1,1,0,0,0,5,6V26a1,1,0,0,0,1,1H26a1,1,0,0,0,0-2Z"/></svg>