<svg id="Layer_1" data-name="Layer 1" xmlns="http://www.w3.org/2000/svg" viewBox="0 0 32 32"><defs><style>.cls-1{fill:#747987;}</style></defs><title>Clock</title><path class="cls-1" d="M16,6.13A9.87,9.87,0,1,0,25.87,16,9.88,9.88,0,0,0,16,6.13Zm0,17.74A7.87,7.87,0,1,1,23.87,16,7.88,7.88,0,0,1,16,23.87Z"/><path class="cls-1" d="M16,9.45a1,1,0,0,0-1,1v5l-4.09,2.94a1,1,0,0,0-.23,1.39,1,1,0,0,0,.81.42,1,1,0,0,0,.58-.19l4.51-3.24,0,0a.89.89,0,0,0,.19-.2l.07-.11a.7.7,0,0,0,.08-.2,1.06,1.06,0,0,0,0-.19s0,0,0-.07V10.45A1,1,0,0,0,16,9.45Z"/></svg>