<svg id="Layer_1" data-name="Layer 1" xmlns="http://www.w3.org/2000/svg" viewBox="0 0 32 32"><defs><style>.cls-1{fill:#747987;}</style></defs><title>Close</title><path class="cls-1" d="M16,6.13A9.87,9.87,0,1,0,25.87,16,9.88,9.88,0,0,0,16,6.13Zm0,17.74A7.87,7.87,0,1,1,23.87,16,7.88,7.88,0,0,1,16,23.87Z"/><path class="cls-1" d="M20.25,11.75a1,1,0,0,0-1.42,0L16,14.59l-2.83-2.84a1,1,0,0,0-1.42,1.42L14.59,16l-2.84,2.83a1,1,0,0,0,0,1.42,1,1,0,0,0,.71.29,1,1,0,0,0,.71-.29L16,17.41l2.83,2.84a1,1,0,0,0,.71.29,1,1,0,0,0,.71-.29,1,1,0,0,0,0-1.42L17.41,16l2.84-2.83A1,1,0,0,0,20.25,11.75Z"/></svg>