<svg id="Layer_1" data-name="Layer 1" xmlns="http://www.w3.org/2000/svg" viewBox="0 0 32 32"><defs><style>.cls-1{fill:#747987;}</style></defs><title>Cloud Download</title><path class="cls-1" d="M25,13.07c0-.16,0-.32,0-.48A6.52,6.52,0,0,0,15.12,7a5.13,5.13,0,0,0-.93-.09,5.83,5.83,0,0,0-5.92,5.57s0,.09,0,.14a4.4,4.4,0,0,0,.82,8.73H12a1,1,0,1,0,0-2H9.1a2.41,2.41,0,1,1,.06-4.81l1.46-.08-.25-1.15a3.92,3.92,0,0,1-.1-.83A3.85,3.85,0,0,1,15.07,9l.44.11.38-.26A4.52,4.52,0,0,1,23,12.59a4.68,4.68,0,0,1-.09.91l-.18.88.87.27a2.4,2.4,0,0,1-.71,4.69H20.74a1,1,0,0,0,0,2H22.9A4.4,4.4,0,0,0,25,13.07Z"/><path class="cls-1" d="M18.38,23.09,17,24.5V16.39a1,1,0,0,0-2,0V24.5l-1.38-1.41a1,1,0,1,0-1.43,1.39l3.1,3.17a1,1,0,0,0,1.42,0l3.1-3.17a1,1,0,0,0-1.43-1.39Z"/></svg>