<svg id="Layer_1" data-name="Layer 1" xmlns="http://www.w3.org/2000/svg" viewBox="0 0 32 32"><defs><style>.cls-1{fill:#747987;}</style></defs><title>Cloud</title><path class="cls-1" d="M25,15.38c0-.17,0-.33,0-.49a6.52,6.52,0,0,0-9.89-5.6,5.13,5.13,0,0,0-.93-.09,5.83,5.83,0,0,0-5.92,5.57c0,.05,0,.09,0,.14a4.41,4.41,0,0,0,.82,8.74H22.9a4.42,4.42,0,0,0,4.41-4.41A4.36,4.36,0,0,0,25,15.38Zm-2.1,6.27H9.1a2.41,2.41,0,1,1,.05-4.82l1.47-.08-.25-1.15a3.92,3.92,0,0,1-.1-.83,3.85,3.85,0,0,1,4.8-3.45l.44.12.38-.27A4.52,4.52,0,0,1,23,14.89a4.68,4.68,0,0,1-.09.91l-.18.89.87.26a2.4,2.4,0,0,1-.71,4.7Z"/></svg>