<svg id="Layer_1" data-name="Layer 1" xmlns="http://www.w3.org/2000/svg" viewBox="0 0 32 32"><defs><style>.cls-1{fill:#747987;}</style></defs><title>Cloud Upload</title><path class="cls-1" d="M25,13.57c0-.16,0-.32,0-.48a6.52,6.52,0,0,0-9.89-5.6,5.13,5.13,0,0,0-.93-.09A5.83,5.83,0,0,0,8.27,13s0,.09,0,.14a4.4,4.4,0,0,0,.82,8.73H12a1,1,0,1,0,0-2H9.1A2.41,2.41,0,1,1,9.16,15L10.62,15l-.25-1.15a3.92,3.92,0,0,1-.1-.83,3.85,3.85,0,0,1,4.8-3.45l.44.11.38-.26A4.52,4.52,0,0,1,23,13.09a4.68,4.68,0,0,1-.09.91l-.18.88.87.27a2.4,2.4,0,0,1-.71,4.69H20.74a1,1,0,0,0,0,2H22.9A4.4,4.4,0,0,0,25,13.57Z"/><path class="cls-1" d="M19.81,16.35l-3.1-3.16a1,1,0,0,0-1.42,0l-3.1,3.16a1,1,0,0,0,0,1.41,1,1,0,0,0,1.42,0L15,16.34v8.11a1,1,0,1,0,2,0V16.34l1.38,1.41a1,1,0,0,0,1.42,0A1,1,0,0,0,19.81,16.35Z"/></svg>