<svg id="Layer_1" data-name="Layer 1" xmlns="http://www.w3.org/2000/svg" viewBox="0 0 32 32"><defs><style>.cls-1{fill:#747987;}</style></defs><title>Copy</title><path class="cls-1" d="M14.24,15.1H17.7a1,1,0,0,0,0-2H14.24a1,1,0,0,0,0,2Z"/><path class="cls-1" d="M14.24,18.31h4.34a1,1,0,0,0,0-2H14.24a1,1,0,1,0,0,2Z"/><path class="cls-1" d="M13.24,20.52a1,1,0,0,0,1,1h7.84a1,1,0,0,0,0-2H14.24A1,1,0,0,0,13.24,20.52Z"/><path class="cls-1" d="M21.2,22.73h-7a1,1,0,1,0,0,2h7a1,1,0,0,0,0-2Z"/><path class="cls-1" d="M21.91,9.43,18.39,4.36l-.09-.1,0,0A1.34,1.34,0,0,0,18,4l-.06,0a.85.85,0,0,0-.35-.08H6.1a1,1,0,0,0-1,1V24.42a1,1,0,0,0,1,1h4.26v1.65a1,1,0,0,0,1,1H25.9a1,1,0,0,0,1-1V16.52h0a1,1,0,0,0-.2-.6Zm.19,3.62,1.82,2.47H22.1ZM18.57,8.13l.62.88h-.62ZM7.1,23.42V5.93h9.47V9H11.36a1,1,0,0,0-1,1V23.42Zm17.8,2.65H12.36V11H20.1v5.51a1,1,0,0,0,1,1h3.8Z"/></svg>