<svg id="Layer_1" data-name="Layer 1" xmlns="http://www.w3.org/2000/svg" viewBox="0 0 32 32"><defs><style>.cls-1{fill:#747987;}</style></defs><title>Crown</title><path class="cls-1" d="M25.75,10.16a2.28,2.28,0,0,0-2.29,2.29,1.49,1.49,0,0,0,0,.21l-2.89.63-3-3.71a2.25,2.25,0,0,0,.71-1.65,2.29,2.29,0,1,0-4.58,0,2.25,2.25,0,0,0,.71,1.65l-3,3.71-2.89-.63a1.49,1.49,0,0,0,0-.21,2.29,2.29,0,1,0-2.29,2.29l.25,0L8.83,22.3v3.06a1,1,0,0,0,1,1H22.17a1,1,0,0,0,1-1V22.3l2.33-7.58.25,0a2.29,2.29,0,0,0,0-4.58ZM6.25,12.74a.29.29,0,1,1,.29-.29A.29.29,0,0,1,6.25,12.74ZM16,7.64a.29.29,0,1,1-.29.29A.29.29,0,0,1,16,7.64Zm5.17,16.72H10.83V23.15H21.17Zm.26-3.21H10.57l-2-6.42,3,.65a1,1,0,0,0,1-.35L16,10.81,19.43,15a1,1,0,0,0,1,.35l3-.65Zm4.32-8.41a.29.29,0,1,1,.29-.29A.29.29,0,0,1,25.75,12.74Z"/></svg>