<svg id="Layer_1" data-name="Layer 1" xmlns="http://www.w3.org/2000/svg" viewBox="0 0 32 32"><defs><style>.cls-1{fill:#747987;}</style></defs><title>Cut</title><path class="cls-1" d="M25.72,8.92a1,1,0,0,0-1.07-.58l-2.44.38a1.06,1.06,0,0,0-.46.2l-6.32,4.93-1.94-1.57a3.69,3.69,0,0,0,.18-1.11A3.78,3.78,0,1,0,11,14.73L12.67,16,11,17.27a3.73,3.73,0,1,0,2.63,3.56,3.69,3.69,0,0,0-.18-1.11l1.94-1.57,6.32,4.93a1.06,1.06,0,0,0,.46.2l2.44.38h.16a1,1,0,0,0,.63-1.78L18.11,16l7.33-5.89A1,1,0,0,0,25.72,8.92ZM11.18,12.39l0,0a1.79,1.79,0,0,1-1.22.49,1.74,1.74,0,1,1,1.74-1.74A1.79,1.79,0,0,1,11.18,12.39ZM9.93,22.57a1.74,1.74,0,1,1,0-3.48,1.79,1.79,0,0,1,1.22.49l0,0a1.79,1.79,0,0,1,.49,1.22A1.74,1.74,0,0,1,9.93,22.57Z"/></svg>