<svg id="Layer_1" data-name="Layer 1" xmlns="http://www.w3.org/2000/svg" viewBox="0 0 32 32"><defs><style>.cls-1{fill:#747987;}</style></defs><title>Dislike</title><path class="cls-1" d="M26.42,15.42,24,7.93a2.24,2.24,0,0,0-2.19-1.77H10.54a1,1,0,0,0-1-.87H6.51a1,1,0,0,0-1,1V17.37a1,1,0,0,0,1,1H9.57a1,1,0,0,0,.67-.27,12.59,12.59,0,0,1,1.69,5.7,2.92,2.92,0,1,0,5.84,0,22,22,0,0,0-.5-4.51h6.67c.19,0,.67,0,1.57-1.07a3.42,3.42,0,0,0,.95-2.66A.5.5,0,0,0,26.42,15.42Zm-17.85,1H7.51V7.28H8.57Zm15.07.91H16a1,1,0,0,0-.25.05,1,1,0,0,0-.68,1.6c.4.51.71,2.94.74,4.87a.92.92,0,0,1-.92.93.93.93,0,0,1-.92-.91,14.79,14.79,0,0,0-3.36-8.76V8.15H21.85a.23.23,0,0,1,.23.2.56.56,0,0,0,0,.12l2.37,7.46A2.6,2.6,0,0,1,23.64,17.28Z"/></svg>