<svg id="Layer_1" data-name="Layer 1" xmlns="http://www.w3.org/2000/svg" viewBox="0 0 32 32"><defs><style>.cls-1{fill:#747987;}</style></defs><title>Drive</title><path class="cls-1" d="M27.3,18.4a.5.5,0,0,0-.05-.13,1.17,1.17,0,0,0-.05-.11h0L20.37,6.4a1,1,0,0,0-.89-.5l-7.06.17h-.06a1,1,0,0,0-.62.29l-.06.07a.54.54,0,0,0-.09.12h0L4.81,17.93a1,1,0,0,0,0,1l3.48,6.54a.75.75,0,0,0,.06.13,1,1,0,0,0,.69.48.47.47,0,0,0,.17,0H22.43a1,1,0,0,0,.85-.48l3.91-6.45h0l.05-.12a.61.61,0,0,1,.05-.12s0-.08,0-.13,0-.08,0-.12,0-.1,0-.14S27.31,18.44,27.3,18.4Zm-18,4.66L6.81,18.47,12.4,9.11l2.44,4.59L9.75,22.24ZM16,15.72l1,1.93H14.81Zm5.9,8.38H11l.46-.77,2.23-3.68h10.9Zm-2.59-6.45L14.1,8l4.84-.12,5.66,9.74Z"/></svg>