<svg id="Layer_1" data-name="Layer 1" xmlns="http://www.w3.org/2000/svg" viewBox="0 0 32 32"><defs><style>.cls-1{fill:#747987;}</style></defs><title>DVD</title><path class="cls-1" d="M16,4.63A11.37,11.37,0,1,0,27.37,16,11.38,11.38,0,0,0,16,4.63Zm0,20.74A9.37,9.37,0,1,1,25.37,16,9.38,9.38,0,0,1,16,25.37Z"/><path class="cls-1" d="M14.58,21.88a6.11,6.11,0,0,1-4.37-4.13,1,1,0,1,0-1.91.58,8.07,8.07,0,0,0,5.78,5.48l.08,0a.83.83,0,0,0,.22,0,1,1,0,0,0,1-.78A1,1,0,0,0,14.58,21.88Z"/><path class="cls-1" d="M17.88,8.18l-.08,0a1,1,0,0,0-1.16.75,1.05,1.05,0,0,0,.78,1.22,6.06,6.06,0,0,1,4.38,4.15,1,1,0,0,0,.95.72A1.45,1.45,0,0,0,23,15a1,1,0,0,0,.67-1.25A8.05,8.05,0,0,0,17.88,8.18Z"/><path class="cls-1" d="M16,13.5A2.5,2.5,0,1,0,18.5,16,2.5,2.5,0,0,0,16,13.5Zm0,3a.5.5,0,1,1,.5-.5A.51.51,0,0,1,16,16.5Z"/></svg>