<svg id="Layer_1" data-name="Layer 1" xmlns="http://www.w3.org/2000/svg" viewBox="0 0 32 32"><defs><style>.cls-1{fill:#747987;}</style></defs><title>Equalizer</title><path class="cls-1" d="M18.21,20.92H17V7.9a1,1,0,1,0-2,0v13H13.79a1,1,0,0,0,0,2H15V24.1a1,1,0,0,0,2,0V22.92h1.21a1,1,0,0,0,0-2Z"/><path class="cls-1" d="M24.22,9.31H23V7.9a1,1,0,1,0-2,0V9.31H19.79a1,1,0,0,0,0,2H21V24.1a1,1,0,0,0,2,0V11.31h1.22a1,1,0,0,0,0-2Z"/><path class="cls-1" d="M13.22,13.71a1,1,0,0,0-1-1H11V7.9a1,1,0,1,0-2,0v4.81H7.79a1,1,0,1,0,0,2H9V24.1a1,1,0,0,0,2,0V14.71h1.22A1,1,0,0,0,13.22,13.71Z"/></svg>