<svg id="Layer_1" data-name="Layer 1" xmlns="http://www.w3.org/2000/svg" viewBox="0 0 32 32"><defs><style>.cls-1{fill:#747987;}</style></defs><title>Exit</title><path class="cls-1" d="M20.47,21.16a1,1,0,0,0-1,1V24H8.4V8H19.47V9.84a1,1,0,0,0,2,0V7a1,1,0,0,0-1-1H7.4a1,1,0,0,0-1,1V25a1,1,0,0,0,1,1H20.47a1,1,0,0,0,1-1V22.16A1,1,0,0,0,20.47,21.16Z"/><path class="cls-1" d="M25.1,15.13l-6-3.46a1,1,0,0,0-1.37.37,1,1,0,0,0,.37,1.36L20.86,15h-9a1,1,0,0,0,0,2h9L18.1,18.6A1,1,0,0,0,17.73,20a1,1,0,0,0,1.37.37l6-3.46a1,1,0,0,0,0-1.74Z"/></svg>