<svg id="Layer_1" data-name="Layer 1" xmlns="http://www.w3.org/2000/svg" viewBox="0 0 32 32"><defs><style>.cls-1{fill:#747987;}</style></defs><title>Export</title><path class="cls-1" d="M27.33,19.2l-3.6-2.67a1,1,0,1,0-1.19,1.6l1.17.88H20.87V14.2a1,1,0,0,0-.07-.36l-.06-.1a.61.61,0,0,0-.07-.14L15.19,6.17l0,0L15,6a.91.91,0,0,0-.16-.11l-.17-.06-.2,0H5.27a1,1,0,0,0-1,1V25.23a1,1,0,0,0,1,1h14.6a1,1,0,0,0,1-1V21h2.84l-1.17.87a1,1,0,0,0-.21,1.4,1,1,0,0,0,.8.4,1,1,0,0,0,.6-.2l3.6-2.67a1,1,0,0,0,0-1.61ZM15.39,9.81l2.5,3.39h-2.5ZM18.87,19h-4.4a1,1,0,0,0,0,2h4.4v3.22H6.27V7.77h7.12V14.2a1,1,0,0,0,1,1h4.48Z"/></svg>