<svg id="Layer_1" data-name="Layer 1" xmlns="http://www.w3.org/2000/svg" viewBox="0 0 32 32"><defs><style>.cls-1{fill:#747987;}</style></defs><title>Eye</title><path class="cls-1" d="M16,14.22A1.78,1.78,0,1,0,17.78,16,1.78,1.78,0,0,0,16,14.22ZM15.78,16a.22.22,0,1,1,.44,0C16.22,16.25,15.78,16.25,15.78,16Z"/><path class="cls-1" d="M27.75,15.63a1,1,0,0,0-.11-.17,1.19,1.19,0,0,0-.09-.15l0,0h0c-4.24-4.43-11-4.44-11.49-4.44h0c-.48,0-7.25,0-11.49,4.44h0l0,0a1.19,1.19,0,0,0-.09.15,1,1,0,0,0-.11.17,1.16,1.16,0,0,0,0,.18,1.25,1.25,0,0,0,0,.19,1.25,1.25,0,0,0,0,.19,1.16,1.16,0,0,0,0,.18,1,1,0,0,0,.11.17,1.19,1.19,0,0,0,.09.15l0,0h0c4.12,4.3,10.65,4.44,11.45,4.44h.12c.8,0,7.33-.14,11.45-4.44h0l0,0a1.19,1.19,0,0,0,.09-.15,1,1,0,0,0,.11-.17,1.16,1.16,0,0,0,0-.18,1.25,1.25,0,0,0,0-.19,1.25,1.25,0,0,0,0-.19A1.16,1.16,0,0,0,27.75,15.63ZM16,12.83Zm-4.5,5.66A12.91,12.91,0,0,1,6.63,16a12.77,12.77,0,0,1,4.87-2.49A5.12,5.12,0,0,0,10.83,16,5,5,0,0,0,11.5,18.49Zm7.62-1.9a3.15,3.15,0,0,1-.79,1.55,3.12,3.12,0,0,1-2.33,1,3.17,3.17,0,1,1,0-6.34h0A3.19,3.19,0,0,1,19.17,16,3.81,3.81,0,0,1,19.12,16.59Zm1.39,1.9a5,5,0,0,0,0-5A12.87,12.87,0,0,1,25.37,16,12.87,12.87,0,0,1,20.51,18.49Z"/></svg>