<svg id="Layer_1" data-name="Layer 1" xmlns="http://www.w3.org/2000/svg" viewBox="0 0 32 32"><defs><style>.cls-1{fill:#747987;}</style></defs><title>Filter</title><path class="cls-1" d="M25,6H7a1,1,0,0,0-.89.54,1,1,0,0,0,.07,1l6.12,8.75v9.85a1,1,0,0,0,1,1,1.05,1.05,0,0,0,.49-.13l5.39-3a1,1,0,0,0,.52-.87V16.32l6.12-8.75a1,1,0,0,0,.07-1A1,1,0,0,0,25,6Zm-7.12,9.43a.36.36,0,0,0,0,.09.91.91,0,0,0-.12.38.3.3,0,0,0,0,.1v6.58l-3.4,1.88V16a.3.3,0,0,0,0-.1.91.91,0,0,0-.12-.38.36.36,0,0,0,0-.09L8.92,8H23.08Z"/></svg>