<svg id="Layer_1" data-name="Layer 1" xmlns="http://www.w3.org/2000/svg" viewBox="0 0 32 32"><defs><style>.cls-1{fill:#747987;}</style></defs><title>Fingerprint</title><path class="cls-1" d="M18.88,25.59a5.63,5.63,0,0,1-2.12.4H15.24a5.88,5.88,0,0,1-5.88-5.88V15a1,1,0,0,0-2,0v5.13A7.88,7.88,0,0,0,15.24,28h1.52a7.84,7.84,0,0,0,2.85-.53,1,1,0,1,0-.73-1.87Z"/><path class="cls-1" d="M23.64,14.09a1,1,0,0,0-1,1v5a5.86,5.86,0,0,1-1.72,4.16,1,1,0,0,0,0,1.41,1,1,0,0,0,.7.29,1,1,0,0,0,.71-.29,7.83,7.83,0,0,0,2.31-5.57v-5A1,1,0,0,0,23.64,14.09Z"/><path class="cls-1" d="M8.36,12.89a1,1,0,0,0,1-1A5.88,5.88,0,0,1,15.24,6h1.52a5.88,5.88,0,0,1,5.88,5.88,1,1,0,0,0,2,0A7.88,7.88,0,0,0,16.76,4H15.24a7.88,7.88,0,0,0-7.88,7.88A1,1,0,0,0,8.36,12.89Z"/><path class="cls-1" d="M11.55,17a1,1,0,0,0-1,1,5.45,5.45,0,0,0,10.9,0v-3.9a5.45,5.45,0,0,0-10.9,0,1,1,0,0,0,2,0,3.45,3.45,0,0,1,6.9,0V18a3.45,3.45,0,0,1-6.9,0A1,1,0,0,0,11.55,17Z"/><path class="cls-1" d="M16,14.89a.47.47,0,0,1,.46.47,1,1,0,0,0,2,0,2.46,2.46,0,1,0-4.92,0v1.28A2.47,2.47,0,0,0,16,19.11a1,1,0,0,0,0-2,.47.47,0,0,1-.46-.47V15.36A.47.47,0,0,1,16,14.89Z"/></svg>