<svg id="Layer_1" data-name="Layer 1" xmlns="http://www.w3.org/2000/svg" viewBox="0 0 32 32"><defs><style>.cls-1{fill:#747987;}</style></defs><title>Flag</title><path class="cls-1" d="M22.73,8.33h0a1,1,0,0,0-.34.07h-.05a6.41,6.41,0,0,1-5.25-.62,8.59,8.59,0,0,0-6.83-.28v-.7a1,1,0,0,0-2,0V25.19a1,1,0,0,0,2,0V16.66c1-.44,3.65-1.33,5.87-.11a9,9,0,0,0,4.36,1.15,7.24,7.24,0,0,0,2.62-.44,1,1,0,0,0,.63-.93v-7A1,1,0,0,0,22.73,8.33Zm-5.64,6.46a8.59,8.59,0,0,0-6.83-.28V9.66c1-.44,3.65-1.33,5.87-.11a9,9,0,0,0,4.36,1.15,8.88,8.88,0,0,0,1.24-.09v5A6.71,6.71,0,0,1,17.09,14.79Z"/></svg>