<svg id="Layer_1" data-name="Layer 1" xmlns="http://www.w3.org/2000/svg" viewBox="0 0 32 32"><defs><style>.cls-1{fill:#747987;}</style></defs><title>Flashdisk</title><path class="cls-1" d="M21,9.73H20.4V5.42a1,1,0,0,0-1-1h-7a1,1,0,0,0-1,1V9.73H11a1,1,0,0,0-1,1V22.85a4.73,4.73,0,0,0,4.73,4.73h2.58A4.73,4.73,0,0,0,22,22.85V10.73A1,1,0,0,0,21,9.73Zm-7.6-3.31h5V9.73h-5ZM20,22.85a2.73,2.73,0,0,1-2.73,2.73H14.71A2.73,2.73,0,0,1,12,22.85V11.73h8Z"/><path class="cls-1" d="M18,19.21a1,1,0,0,0-1,1v2.61h-.29a1,1,0,1,0,0,2h.4A1.89,1.89,0,0,0,19,22.94V20.21A1,1,0,0,0,18,19.21Z"/></svg>