<svg id="Layer_1" data-name="Layer 1" xmlns="http://www.w3.org/2000/svg" viewBox="0 0 32 32"><defs><style>.cls-1{fill:#747987;}</style></defs><title>Forward</title><path class="cls-1" d="M17.43,6a1,1,0,0,0-1.05-.12,1,1,0,0,0-.57.9V9.17A11.2,11.2,0,0,0,6.57,25.73a1,1,0,0,0,.88.52.84.84,0,0,0,.27,0,1,1,0,0,0,.73-1A6.13,6.13,0,0,1,9,22.31a6.31,6.31,0,0,1,6.8-3.56v2.39a1,1,0,0,0,1.62.78l9-7.19a1,1,0,0,0,.38-.78,1,1,0,0,0-.38-.78Zm.38,13.09V18A1,1,0,0,0,17.1,17a8.31,8.31,0,0,0-9.86,4.36A9.29,9.29,0,0,1,8,16.52a9.18,9.18,0,0,1,8.37-5.36h.38a.94.94,0,0,0,.73-.28,1,1,0,0,0,.31-.72V8.83L24.21,14Z"/></svg>