<svg id="Layer_1" data-name="Layer 1" xmlns="http://www.w3.org/2000/svg" viewBox="0 0 32 32"><defs><style>.cls-1{fill:#747987;}</style></defs><title>Fullscreen</title><path class="cls-1" d="M13,6H7a1,1,0,0,0-.38.08,1,1,0,0,0-.54.54A1,1,0,0,0,6,7v6a1,1,0,1,0,2,0V9.41l3.47,3.48a1,1,0,0,0,.71.29,1,1,0,0,0,.71-.29,1,1,0,0,0,0-1.42L9.41,8H13a1,1,0,1,0,0-2Z"/><path class="cls-1" d="M13,24H9.41l3.48-3.47a1,1,0,0,0-1.42-1.42L8,22.59V19a1,1,0,0,0-2,0v6a.7.7,0,0,0,0,.14.69.69,0,0,0,0,.24,1,1,0,0,0,.54.54A.84.84,0,0,0,7,26H13a1,1,0,1,0,0-2Z"/><path class="cls-1" d="M25.92,6.62a1,1,0,0,0-.54-.54A1,1,0,0,0,25,6H19a1,1,0,0,0,0,2h3.62l-3.48,3.47a1,1,0,0,0,0,1.42,1,1,0,0,0,.71.29,1,1,0,0,0,.71-.29L24,9.41V13a1,1,0,1,0,2,0V7A1,1,0,0,0,25.92,6.62Z"/><path class="cls-1" d="M25,18a1,1,0,0,0-1,1v3.61l-3.47-3.47a1,1,0,0,0-1.42,1.42L22.59,24H19a1,1,0,0,0,0,2h6a1,1,0,0,0,.38-.08.83.83,0,0,0,.3-.2h0l0-.06a1,1,0,0,0,.17-.27A1,1,0,0,0,26,25V19A1,1,0,0,0,25,18Z"/></svg>