<svg id="Layer_1" data-name="Layer 1" xmlns="http://www.w3.org/2000/svg" viewBox="0 0 32 32"><defs><style>.cls-1{fill:#747987;}</style></defs><title>Games</title><path class="cls-1" d="M26,14.5a3.59,3.59,0,0,0-3.48-2.71H17V9.55A.53.53,0,0,1,17.53,9H20.7A2.26,2.26,0,0,0,23,6.76V5.63a1,1,0,1,0-2,0V6.76A.26.26,0,0,1,20.7,7H17.53A2.53,2.53,0,0,0,15,9.55v2.24H9.53A3.59,3.59,0,0,0,6.05,14.5L4,22.63A3.82,3.82,0,0,0,11.24,25l.84-2h7.84l.84,2A3.82,3.82,0,0,0,28,22.63Zm-.24,10.17a1.82,1.82,0,0,1-3.11-.41l-1.09-2.59a1,1,0,0,0-.93-.61H11.42a1,1,0,0,0-.93.61L9.4,24.26a1.82,1.82,0,0,1-3.11.41A1.78,1.78,0,0,1,6,23.11L8,15a1.58,1.58,0,0,1,1.54-1.2H22.47A1.58,1.58,0,0,1,24,15l2,8.12A1.78,1.78,0,0,1,25.71,24.67Z"/><path class="cls-1" d="M12.51,16.43h-.45V16a1,1,0,0,0-2,0v.45H9.61a1,1,0,0,0,0,2h.45v.45a1,1,0,0,0,2,0v-.45h.45a1,1,0,0,0,0-2Z"/><path class="cls-1" d="M22.32,16.17a1,1,0,0,0-.3.06,1.21,1.21,0,0,0,.07-.33,1.23,1.23,0,1,0-2.45,0,1,1,0,0,0,.07.36,1.28,1.28,0,0,0-.48-.09,1.23,1.23,0,0,0,0,2.45,1.28,1.28,0,0,0,.48-.09,1,1,0,0,0-.07.36A1.23,1.23,0,1,0,22,18.56a1,1,0,0,0,.3.06,1.23,1.23,0,1,0,0-2.45Zm-1.16,1.55a1,1,0,0,0-.3-.06,1,1,0,0,0-.47.1,1.51,1.51,0,0,0,.07-.37,1.53,1.53,0,0,0-.07-.36,1.2,1.2,0,0,0,.47.1,1.45,1.45,0,0,0,.3-.06,1.14,1.14,0,0,0-.07.32A1.21,1.21,0,0,0,21.16,17.72Z"/></svg>