<svg id="Layer_1" data-name="Layer 1" xmlns="http://www.w3.org/2000/svg" viewBox="0 0 32 32"><defs><style>.cls-1{fill:#747987;}</style></defs><title>Group</title><path class="cls-1" d="M16,15.77a3,3,0,1,0-3-3A3,3,0,0,0,16,15.77Zm0-3.92a1,1,0,1,1-1,1A1,1,0,0,1,16,11.85Z"/><path class="cls-1" d="M21.81,14.36a6.27,6.27,0,0,0-4.72,2.12,6,6,0,0,0-2.18,0,6.27,6.27,0,0,0-4.72-2.12,6.36,6.36,0,0,0-6.36,6.36v.36a1,1,0,0,0,1,1H9.68a4.78,4.78,0,0,0,0,.66v.36a1,1,0,0,0,1,1H21.36a1,1,0,0,0,1-1v-.36a4.78,4.78,0,0,0,0-.66h4.85a1,1,0,0,0,1-1v-.36A6.36,6.36,0,0,0,21.81,14.36ZM10.23,20.08H5.87a4.36,4.36,0,0,1,6.94-2.84A6.39,6.39,0,0,0,10.23,20.08Zm1.46,2a4.36,4.36,0,0,1,8.62,0Zm10.08-2a6.39,6.39,0,0,0-2.58-2.84,4.36,4.36,0,0,1,6.94,2.84Z"/><path class="cls-1" d="M21.81,13.76a3,3,0,1,0-3-3A3,3,0,0,0,21.81,13.76Zm0-3.93a1,1,0,1,1-1,1A1,1,0,0,1,21.81,9.83Z"/><path class="cls-1" d="M10.19,13.76a3,3,0,1,0-3-3A3,3,0,0,0,10.19,13.76Zm0-3.93a1,1,0,0,1,0,1.93,1,1,0,1,1,0-1.93Z"/></svg>