<svg id="Layer_1" data-name="Layer 1" xmlns="http://www.w3.org/2000/svg" viewBox="0 0 32 32"><defs><style>.cls-1{fill:#747987;}</style></defs><title>Idea</title><path class="cls-1" d="M16,6.66a1,1,0,0,0,1-1V2.38a1,1,0,1,0-2,0V5.66A1,1,0,0,0,16,6.66Z"/><path class="cls-1" d="M10.09,8.17a1,1,0,0,0,1.53-1.28L9.52,4.38A1,1,0,1,0,8,5.66Z"/><path class="cls-1" d="M8.12,13.27a1,1,0,0,0,.18-2l-3.23-.57a1,1,0,0,0-.35,2L8,13.25Z"/><path class="cls-1" d="M8.57,16.79,5.74,18.43a1,1,0,0,0-.37,1.36,1,1,0,0,0,.87.5,1,1,0,0,0,.5-.13l2.83-1.64a1,1,0,1,0-1-1.73Z"/><path class="cls-1" d="M26.26,18.43l-2.83-1.64a1,1,0,1,0-1,1.73l2.83,1.64a1,1,0,0,0,.5.13,1,1,0,0,0,.87-.5A1,1,0,0,0,26.26,18.43Z"/><path class="cls-1" d="M26.93,10.71l-3.23.57a1,1,0,0,0,.18,2l.17,0,3.23-.57a1,1,0,0,0-.35-2Z"/><path class="cls-1" d="M21.14,8.53a1,1,0,0,0,.77-.36L24,5.66a1,1,0,1,0-1.53-1.28l-2.1,2.51a1,1,0,0,0,.76,1.64Z"/><path class="cls-1" d="M16,7.11a6.6,6.6,0,0,0-5.1,10.82v0c1.57,2.23,1.63,6,1.63,6.36,0,0,0,0,0,.05v1.72a2.62,2.62,0,0,0,2.63,2.62h1.68a2.62,2.62,0,0,0,2.63-2.62V24.36s0,0,0-.05c0-.37.05-4.11,1.62-6.35a0,0,0,0,1,0,0A6.61,6.61,0,0,0,16,7.11Zm1.47,19a.63.63,0,0,1-.63.62H15.16a.63.63,0,0,1-.63-.62v-.72h2.94Zm0-2.72h-3c0-.18,0-.38,0-.59h3.08C17.52,23,17.51,23.18,17.49,23.36Zm2-6.62s0,0,0,0l0,0a10.94,10.94,0,0,0-1.59,4l-3.71,0a11,11,0,0,0-1.59-4l0,0s0,0,0,0a4.62,4.62,0,1,1,7,0Z"/></svg>