<svg id="Layer_1" data-name="Layer 1" xmlns="http://www.w3.org/2000/svg" viewBox="0 0 32 32"><defs><style>.cls-1{fill:#747987;}</style></defs><title>Image</title><path class="cls-1" d="M25.15,7H6.85A2.23,2.23,0,0,0,4.62,9.26V22.74A2.23,2.23,0,0,0,6.85,25h18.3a2.23,2.23,0,0,0,2.23-2.23V9.26A2.23,2.23,0,0,0,25.15,7ZM6.85,9h18.3a.24.24,0,0,1,.23.23v4.46L22,10.79a1,1,0,0,0-.74-.24,1,1,0,0,0-.68.36l-5,5.93-3.65-2.38a1,1,0,0,0-1.24.11L6.62,18.48V9.26A.24.24,0,0,1,6.85,9ZM25.15,23H6.85a.24.24,0,0,1-.23-.23V21.26l4.89-4.69L15.24,19a1,1,0,0,0,1.31-.2L21.44,13l3.94,3.39v6.38A.24.24,0,0,1,25.15,23Z"/><path class="cls-1" d="M9.44,13.31a1.57,1.57,0,1,0-1.57-1.57A1.57,1.57,0,0,0,9.44,13.31Z"/></svg>