<svg id="Layer_1" data-name="Layer 1" xmlns="http://www.w3.org/2000/svg" viewBox="0 0 32 32"><defs><style>.cls-1{fill:#747987;}</style></defs><title>Like</title><path class="cls-1" d="M25.51,13.79c-.9-1.07-1.38-1.07-1.57-1.07H17.27a22,22,0,0,0,.5-4.52,2.92,2.92,0,1,0-5.84,0,12.45,12.45,0,0,1-1.69,5.68,1,1,0,0,0-.67-.27H6.51a1,1,0,0,0-1,1V25.72a1,1,0,0,0,1,1H9.57a1,1,0,0,0,1-.87H21.85A2.24,2.24,0,0,0,24,24.07l2.38-7.49a.5.5,0,0,0,0-.13A3.42,3.42,0,0,0,25.51,13.79ZM8.57,24.72H7.51V15.63H8.57Zm13.55-1.2a.56.56,0,0,0,0,.12.24.24,0,0,1-.24.2H10.57V17A14.79,14.79,0,0,0,13.93,8.2a.93.93,0,0,1,.92-.92.91.91,0,0,1,.65.27.9.9,0,0,1,.27.64c0,2-.34,4.38-.74,4.89a1,1,0,0,0,.16,1.41,1,1,0,0,0,.52.19,1,1,0,0,0,.25.05h7.68a2.6,2.6,0,0,1,.85,1.34Z"/></svg>