<svg id="Layer_1" data-name="Layer 1" xmlns="http://www.w3.org/2000/svg" viewBox="0 0 32 32"><defs><style>.cls-1{fill:#747987;}</style></defs><title>Link</title><path class="cls-1" d="M14,22.28l-.22.22a3.1,3.1,0,0,1-2.23.93h0a3.12,3.12,0,0,1-2.22-.92,2.92,2.92,0,0,1,0-4.13l5.74-5.74a.41.41,0,0,1,.6,0l2.59,2.59a1,1,0,0,0,1.41,0,1,1,0,0,0,0-1.42l-2.58-2.59a2.45,2.45,0,0,0-1.72-.71h0a2.41,2.41,0,0,0-1.71.71L7.9,17a4.92,4.92,0,0,0,0,7,5.14,5.14,0,0,0,3.64,1.5h0A5.09,5.09,0,0,0,15.2,23.9l.22-.21A1,1,0,0,0,14,22.28Z"/><path class="cls-1" d="M16.8,8.07l-.11.11a1,1,0,0,0,0,1.42,1,1,0,0,0,1.41,0l.11-.11a3.15,3.15,0,0,1,4.47,0,2.91,2.91,0,0,1,0,4.13l-5.74,5.74a.42.42,0,0,1-.3.13h0a.42.42,0,0,1-.3-.13l-2.5-2.51a1,1,0,1,0-1.41,1.41l2.49,2.51a2.46,2.46,0,0,0,1.72.72h0a2.41,2.41,0,0,0,1.71-.71L24.1,15a4.92,4.92,0,0,0,0-7A5.17,5.17,0,0,0,16.8,8.07Z"/></svg>