<svg id="Layer_1" data-name="Layer 1" xmlns="http://www.w3.org/2000/svg" viewBox="0 0 32 32"><defs><style>.cls-1{fill:#747987;}</style></defs><title>Loading</title><path class="cls-1" d="M17,7a1,1,0,0,0-2,0v3.71a1,1,0,0,0,2,0Z"/><path class="cls-1" d="M11.76,12.62a1,1,0,0,0,1.41.12,1,1,0,0,0,.12-1.41L10.91,8.49A1,1,0,0,0,9.37,9.78Z"/><path class="cls-1" d="M10.67,16.18a1,1,0,0,0,.18-2L7.2,13.55a1,1,0,0,0-.35,2l3.65.64Z"/><path class="cls-1" d="M12.18,18.32A1,1,0,0,0,10.81,18L7.6,19.81a1,1,0,0,0-.36,1.37,1,1,0,0,0,.87.5,1,1,0,0,0,.49-.14l3.21-1.85A1,1,0,0,0,12.18,18.32Z"/><path class="cls-1" d="M14.49,20.26a1,1,0,0,0-1.28.6l-1.27,3.48a1,1,0,0,0,.6,1.28.83.83,0,0,0,.34.07,1,1,0,0,0,.94-.66l1.27-3.49A1,1,0,0,0,14.49,20.26Z"/><path class="cls-1" d="M18.79,20.86a1,1,0,1,0-1.88.68L18.18,25a1,1,0,0,0,.94.66.83.83,0,0,0,.34-.07,1,1,0,0,0,.6-1.28Z"/><path class="cls-1" d="M24.4,19.81,21.19,18a1,1,0,1,0-1,1.73l3.21,1.85a1,1,0,0,0,.49.14,1,1,0,0,0,.87-.5A1,1,0,0,0,24.4,19.81Z"/><path class="cls-1" d="M24.8,13.55l-3.65.64a1,1,0,0,0,.18,2l.17,0,3.65-.64a1,1,0,0,0-.35-2Z"/><path class="cls-1" d="M19.48,13a1,1,0,0,0,.76-.35l2.39-2.84a1,1,0,0,0-1.54-1.29l-2.38,2.84a1,1,0,0,0,.12,1.41A1,1,0,0,0,19.48,13Z"/></svg>