<svg id="Layer_1" data-name="Layer 1" xmlns="http://www.w3.org/2000/svg" viewBox="0 0 32 32"><defs><style>.cls-1{fill:#747987;}</style></defs><title>Login</title><path class="cls-1" d="M16,4.18A11.82,11.82,0,1,0,27.82,16,11.83,11.83,0,0,0,16,4.18ZM21.54,24.1a9.78,9.78,0,0,1-11.08,0c0-.19-.05-.38-.05-.55a5.59,5.59,0,0,1,11.18,0C21.59,23.72,21.56,23.91,21.54,24.1Zm1.95-1.76a1,1,0,0,0,0-.17c0-.1,0-.21-.06-.31s-.06-.26-.1-.39l-.09-.3c0-.13-.09-.26-.14-.38S23,20.6,23,20.51s-.12-.26-.19-.38l-.12-.25c-.08-.14-.16-.27-.25-.4l-.12-.19c-.13-.2-.27-.38-.41-.56l-.09-.09a5.14,5.14,0,0,0-.38-.42L21.2,18l-.32-.29-.23-.18-.32-.25-.25-.16L19.73,17l-.26-.14-.37-.18-.28-.12-.38-.14-.29-.09-.41-.11-.28-.06A4,4,0,0,0,17,16l-.24,0c-.24,0-.49,0-.74,0s-.5,0-.74,0L15,16a4,4,0,0,0-.48.08l-.28.06-.41.11-.29.09-.38.14-.28.12-.37.18-.26.14-.35.21-.25.16-.32.25-.23.18L10.8,18l-.19.18a5.14,5.14,0,0,0-.38.42l-.09.09c-.14.18-.28.36-.41.56l-.12.19c-.09.13-.17.26-.25.4l-.12.25c-.07.13-.13.25-.19.38s-.07.18-.11.28-.1.25-.14.38l-.09.3c0,.13-.07.26-.1.39s0,.21-.06.31a1,1,0,0,0,0,.17A9.68,9.68,0,0,1,6.18,16a9.82,9.82,0,0,1,19.64,0A9.68,9.68,0,0,1,23.49,22.34Z"/><path class="cls-1" d="M16,8.5a3.33,3.33,0,1,0,3.33,3.33A3.33,3.33,0,0,0,16,8.5Zm0,4.66a1.33,1.33,0,1,1,1.33-1.33A1.33,1.33,0,0,1,16,13.16Z"/></svg>