<svg id="Layer_1" data-name="Layer 1" xmlns="http://www.w3.org/2000/svg" viewBox="0 0 32 32"><defs><style>.cls-1{fill:#747987;}</style></defs><title>Love</title><path class="cls-1" d="M16,8.74c-3.07-2.51-6.53-1.95-8.52,0-2.14,2.14-2.62,6,.61,9.23l7.21,7.2a1,1,0,0,0,.7.29,1,1,0,0,0,.71-.29L23.92,18c3.25-3.25,2.78-7.12.64-9.26C22.57,6.76,19.09,6.21,16,8.74Zm6.5,7.85L16,23.09l-6.5-6.5c-2.4-2.41-2-5-.61-6.4a3.86,3.86,0,0,1,2.73-1.12A5.23,5.23,0,0,1,15.3,10.8a1,1,0,0,0,1.41,0c2.43-2.43,5-2,6.43-.64S24.93,14.16,22.5,16.59Z"/></svg>