<svg id="Layer_1" data-name="Layer 1" xmlns="http://www.w3.org/2000/svg" viewBox="0 0 32 32"><defs><style>.cls-1{fill:#747987;}</style></defs><title>Menu</title><path class="cls-1" d="M23.18,6H8.82A2.82,2.82,0,0,0,6,8.82V23.18A2.82,2.82,0,0,0,8.82,26H23.18A2.82,2.82,0,0,0,26,23.18V8.82A2.82,2.82,0,0,0,23.18,6ZM24,23.18a.82.82,0,0,1-.82.82H8.82A.82.82,0,0,1,8,23.18V8.82A.82.82,0,0,1,8.82,8H23.18a.82.82,0,0,1,.82.82Z"/><path class="cls-1" d="M20.82,10.49H11.2a1,1,0,0,0,0,2h9.62a1,1,0,0,0,0-2Z"/><path class="cls-1" d="M20.82,15H11.2a1,1,0,0,0,0,2h9.62a1,1,0,1,0,0-2Z"/><path class="cls-1" d="M20.82,19.49H11.2a1,1,0,0,0,0,2h9.62a1,1,0,0,0,0-2Z"/></svg>