<svg id="Layer_1" data-name="Layer 1" xmlns="http://www.w3.org/2000/svg" viewBox="0 0 32 32"><defs><style>.cls-1{fill:#747987;}</style></defs><title>Microphone</title><path class="cls-1" d="M15.55,18.62h.9a3.9,3.9,0,0,0,3.89-3.9v-6a3.89,3.89,0,0,0-3.89-3.89h-.9a3.89,3.89,0,0,0-3.89,3.89v6A3.9,3.9,0,0,0,15.55,18.62Zm-1.89-9.9a1.89,1.89,0,0,1,1.89-1.89h.9a1.89,1.89,0,0,1,1.89,1.89v6a1.9,1.9,0,0,1-1.89,1.9h-.9a1.9,1.9,0,0,1-1.89-1.9Z"/><path class="cls-1" d="M23.68,14.28a1,1,0,0,0-2,0,5.68,5.68,0,1,1-11.36,0,1,1,0,0,0-2,0A7.69,7.69,0,0,0,15,21.89v3.28H11.36a1,1,0,0,0,0,2h9.28a1,1,0,0,0,0-2H17V21.89A7.69,7.69,0,0,0,23.68,14.28Z"/></svg>