<svg id="Layer_1" data-name="Layer 1" xmlns="http://www.w3.org/2000/svg" viewBox="0 0 32 32"><defs><style>.cls-1{fill:#747987;}</style></defs><title>Mouse</title><path class="cls-1" d="M20.08,8.81H17V8.3a.44.44,0,0,1,.44-.44H20a2.21,2.21,0,0,0,2.22-2.21V5a1,1,0,0,0-2,0v.65a.21.21,0,0,1-.22.21H17.44A2.44,2.44,0,0,0,15,8.3v.51H11.92a2.67,2.67,0,0,0-2.67,2.66v9.78a6.75,6.75,0,0,0,13.5,0V11.47A2.67,2.67,0,0,0,20.08,8.81Zm0,2a.67.67,0,0,1,.67.66v3.06H17V10.81Zm-8.16,0H15v3.72H11.25V11.47A.67.67,0,0,1,11.92,10.81ZM16,26a4.75,4.75,0,0,1-4.75-4.75V16.53h9.5v4.72A4.75,4.75,0,0,1,16,26Z"/></svg>