<svg id="Layer_1" data-name="Layer 1" xmlns="http://www.w3.org/2000/svg" viewBox="0 0 32 32"><defs><style>.cls-1{fill:#747987;}</style></defs><title>Music</title><path class="cls-1" d="M24.44,5.42a1.54,1.54,0,0,0-1.36-.25L12.75,8a1.82,1.82,0,0,0-1.2,1.76V20.45a3.31,3.31,0,0,0-1.37-.3,3.37,3.37,0,1,0,3.37,3.37V14.43l9.63-2.49v5.9a3.26,3.26,0,0,0-1.36-.3,3.37,3.37,0,1,0,3.33,3.72.86.86,0,0,0,0-.17V7A1.87,1.87,0,0,0,24.44,5.42ZM10.18,24.89a1.37,1.37,0,1,1,1.37-1.37A1.36,1.36,0,0,1,10.18,24.89Zm11.64-2.61a1.37,1.37,0,1,1,1.36-1.37A1.37,1.37,0,0,1,21.82,22.28Zm1.36-12.4-9.63,2.48V9.85l9.63-2.63Z"/></svg>