<svg id="Layer_1" data-name="Layer 1" xmlns="http://www.w3.org/2000/svg" viewBox="0 0 32 32"><defs><style>.cls-1{fill:#747987;}</style></defs><title>New Document</title><path class="cls-1" d="M20.08,24.73H7.66V7.27h9.12V13.7a1,1,0,0,0,1,1h4.48v2.52a1,1,0,0,0,2,0V13.7s0-.08,0-.11a1.18,1.18,0,0,0,0-.2l-.09-.19s0-.07-.05-.1L18.58,5.67s0,0,0,0l-.15-.13a.91.91,0,0,0-.16-.11l-.17-.06-.2,0H6.66a1,1,0,0,0-1,1V25.73a1,1,0,0,0,1,1H20.08a1,1,0,0,0,0-2ZM18.78,9.31l2.5,3.39h-2.5Z"/><path class="cls-1" d="M10,11.93h4a1,1,0,0,0,0-2H10a1,1,0,0,0,0,2Z"/><path class="cls-1" d="M10,15.6h5a1,1,0,0,0,0-2H10a1,1,0,0,0,0,2Z"/><path class="cls-1" d="M19.9,18.26a1,1,0,0,0-1-1H10a1,1,0,0,0,0,2h9A1,1,0,0,0,19.9,18.26Z"/><path class="cls-1" d="M10,20.93a1,1,0,0,0,0,2h8a1,1,0,0,0,0-2Z"/><path class="cls-1" d="M25.34,21.61H24.26V20.53a1,1,0,0,0-2,0v1.08H21.18a1,1,0,0,0,0,2h1.08v1.08a1,1,0,0,0,2,0V23.61h1.08a1,1,0,1,0,0-2Z"/></svg>