<svg id="Layer_1" data-name="Layer 1" xmlns="http://www.w3.org/2000/svg" viewBox="0 0 32 32"><defs><style>.cls-1{fill:#FFFFFF;}</style></defs><title>Next</title><path class="cls-1" d="M15.67,6.13A9.87,9.87,0,1,0,25.53,16,9.88,9.88,0,0,0,15.67,6.13Zm0,17.74A7.87,7.87,0,1,1,23.53,16,7.88,7.88,0,0,1,15.67,23.87Z"/><path class="cls-1" d="M19.25,15.63a.56.56,0,0,0-.09-.17s0-.06,0-.09L19,15.3,19,15.22l-4.19-3.37a1,1,0,0,0-1.4.15,1,1,0,0,0,.15,1.41L16.74,16l-3.21,2.59A1,1,0,0,0,13.38,20a1,1,0,0,0,.78.37,1,1,0,0,0,.62-.22L19,16.78l.07-.09.08-.06s0-.06,0-.09a.56.56,0,0,0,.09-.17.64.64,0,0,0,.06-.18,1.81,1.81,0,0,0,0-.38A.64.64,0,0,0,19.25,15.63Z"/></svg>