<svg id="Layer_1" data-name="Layer 1" xmlns="http://www.w3.org/2000/svg" viewBox="0 0 32 32"><defs><style>.cls-1{fill:#747987;}</style></defs><title>Notification</title><path class="cls-1" d="M26.49,23.86c-.64-.44-2.48-2-2.5-3.25V14.43a8.43,8.43,0,0,0-7-8.54V4.73a1,1,0,0,0-2,0V5.89a8.43,8.43,0,0,0-7,8.54V20.6c0,1.29-1.86,2.82-2.5,3.26A1,1,0,0,0,5.11,25a1,1,0,0,0,1,.71h6.82a3.13,3.13,0,0,0,6.22,0h6.82a1,1,0,0,0,1-.71A1,1,0,0,0,26.49,23.86ZM16,26.48a1.12,1.12,0,0,1-1.07-.79h2.14A1.12,1.12,0,0,1,16,26.48Zm0-2.79H8.66A5.07,5.07,0,0,0,10,20.61V14.43c0-3.65,2.69-6.62,6-6.62s6,3,6,6.62v6.19a5,5,0,0,0,1.35,3.07Z"/></svg>