<svg id="Layer_1" data-name="Layer 1" xmlns="http://www.w3.org/2000/svg" viewBox="0 0 32 32"><defs><style>.cls-1{fill:#747987;}</style></defs><title>Open Folder</title><path class="cls-1" d="M27.5,13.34a1,1,0,0,0-.84-.46H25.43V10.2a1,1,0,0,0-1-1H14.15L12.61,6.92a1,1,0,0,0-.83-.45H5.34a1,1,0,0,0-1,1V24.53s0,0,0,0a.8.8,0,0,0,.07.34l0,.07a1.17,1.17,0,0,1,0,.11l.11.13,0,0a1,1,0,0,0,.27.19l.08,0a1,1,0,0,0,.34.07H21.9a1,1,0,0,0,.91-.6l4.76-10.64A1,1,0,0,0,27.5,13.34ZM6.34,8.47h4.91l1.54,2.29a.52.52,0,0,0,.1.11l0,.05a1.07,1.07,0,0,0,.28.19l.06,0a.84.84,0,0,0,.35.07h9.81v1.68H10.1a1,1,0,0,0-.91.59L6.34,19.84V8.47ZM21.25,23.53H6.89l3.86-8.65H25.11Z"/></svg>