<svg id="Layer_1" data-name="Layer 1" xmlns="http://www.w3.org/2000/svg" viewBox="0 0 32 32"><defs><style>.cls-1{fill:#747987;}</style></defs><title>Open Lock</title><path class="cls-1" d="M22.09,12.09H12.54V10.34A3.49,3.49,0,0,1,19.25,9a1,1,0,1,0,1.84-.78,5.49,5.49,0,0,0-10.55,2.14v1.75H9.91a2.84,2.84,0,0,0-2.84,2.83v9.4a2.84,2.84,0,0,0,2.84,2.83H22.09a2.84,2.84,0,0,0,2.84-2.83v-9.4A2.84,2.84,0,0,0,22.09,12.09Zm.84,12.23a.84.84,0,0,1-.84.83H9.91a.84.84,0,0,1-.84-.83v-9.4a.84.84,0,0,1,.84-.83H22.09a.84.84,0,0,1,.84.83Z"/><path class="cls-1" d="M16,17.77a1.62,1.62,0,0,0-1,2.9v1.81a1,1,0,1,0,2,0V20.67a1.62,1.62,0,0,0-1-2.9Z"/></svg>