<svg id="Layer_1" data-name="Layer 1" xmlns="http://www.w3.org/2000/svg" viewBox="0 0 32 32"><defs><style>.cls-1{fill:#747987;}</style></defs><title>Open Book</title><path class="cls-1" d="M26.68,9H25.09V7.73A1,1,0,0,0,24.77,7,1,1,0,0,0,24,6.73l-.92.06A19.14,19.14,0,0,0,16,8.63,19.14,19.14,0,0,0,8.89,6.79L8,6.73A1,1,0,0,0,7.23,7a1,1,0,0,0-.32.73V9H5.32a1,1,0,0,0-1,1V22.53a1,1,0,0,0,.36.77,1,1,0,0,0,.83.21A29.73,29.73,0,0,1,8.9,23c1.63,0,7,.49,7,.49a.61.61,0,0,0,.19,0S21.54,23,23.31,23a25.19,25.19,0,0,1,3.16.54l.21,0a1,1,0,0,0,1-1V10A1,1,0,0,0,26.68,9ZM8.9,21a18.81,18.81,0,0,0-2.58.31V11h.59v8.43a1,1,0,0,0,1,1,31,31,0,0,1,4,.34,13.22,13.22,0,0,1,1.51.57C11.76,21.17,9.82,21,8.9,21ZM15,19.82a20.53,20.53,0,0,0-2.65-1,24.45,24.45,0,0,0-3.44-.36V10a.43.43,0,0,0,0-.05V8.8A17.17,17.17,0,0,1,15,10.36Zm2-9.46A17.17,17.17,0,0,1,23.09,8.8v9.63a24.45,24.45,0,0,0-3.44.36,20.53,20.53,0,0,0-2.65,1ZM25.68,21.3A17.65,17.65,0,0,0,23.31,21c-1,0-3,.16-4.63.3a11.66,11.66,0,0,1,1.45-.54,30.7,30.7,0,0,1,4-.34,1,1,0,0,0,1-1V11h.59Z"/></svg>