<svg id="Layer_1" data-name="Layer 1" xmlns="http://www.w3.org/2000/svg" viewBox="0 0 32 32"><defs><style>.cls-1{fill:#747987;}</style></defs><title>Password</title><path class="cls-1" d="M22.56,12.17H21.41V10.49a5.38,5.38,0,1,0-10.75,0v1.68H9.44A2.83,2.83,0,0,0,6.61,15v9.05a2.84,2.84,0,0,0,2.83,2.84H22.56a2.84,2.84,0,0,0,2.83-2.84V15A2.83,2.83,0,0,0,22.56,12.17Zm-9.9-1.68a3.38,3.38,0,1,1,6.75,0v1.67H12.66ZM23.39,24.05a.84.84,0,0,1-.83.84H9.44a.84.84,0,0,1-.83-.84V15a.83.83,0,0,1,.83-.83H22.56a.83.83,0,0,1,.83.83Z"/><path class="cls-1" d="M16,17.81a1.46,1.46,0,0,0-1.46,1.46,1.43,1.43,0,0,0,.43,1v2a1,1,0,1,0,2,0V20.36a1.46,1.46,0,0,0-1-2.55Z"/></svg>