<svg id="Layer_1" data-name="Layer 1" xmlns="http://www.w3.org/2000/svg" viewBox="0 0 32 32"><defs><style>.cls-1{fill:#747987;}</style></defs><title>Paste</title><path class="cls-1" d="M24.78,14.85h-9a1,1,0,0,0-1,1V26.92a1,1,0,0,0,1,1h9a1,1,0,0,0,1-1V15.85A1,1,0,0,0,24.78,14.85Zm-1,11.07h-7V16.85h7Z"/><path class="cls-1" d="M18.45,19.56H22.1a1,1,0,0,0,0-2H18.45a1,1,0,0,0,0,2Z"/><path class="cls-1" d="M18.45,25.15H22.1a1,1,0,0,0,0-2H18.45a1,1,0,1,0,0,2Z"/><path class="cls-1" d="M18.45,22.39H22.1a1,1,0,0,0,0-2H18.45a1,1,0,0,0,0,2Z"/><path class="cls-1" d="M13.36,23.85h-5a.14.14,0,0,1-.14-.13V7a.14.14,0,0,1,.14-.14H11a1,1,0,0,0,1,.77h6.21a1,1,0,0,0,1-.77h2.64a.14.14,0,0,1,.14.14v6.35a1,1,0,0,0,2,0V7a2.14,2.14,0,0,0-2.14-2.14H19.13a1,1,0,0,0-1-.77H12a1,1,0,0,0-1,.77H8.36A2.14,2.14,0,0,0,6.22,7V23.72a2.14,2.14,0,0,0,2.14,2.13h5a1,1,0,0,0,0-2Z"/></svg>