<svg id="Layer_1" data-name="Layer 1" xmlns="http://www.w3.org/2000/svg" viewBox="0 0 32 32"><defs><style>.cls-1{fill:#747987;}</style></defs><title>Peoplr Tag</title><path class="cls-1" d="M25.46,5.76H6.54a1.87,1.87,0,0,0-2,1.72V22.73a1,1,0,0,0,1,1h6.12l3.6,4.16a1,1,0,0,0,1.52,0l3.6-4.16h6.12a1,1,0,0,0,1-1V7.48A1.87,1.87,0,0,0,25.46,5.76Zm0,16H19.9a1,1,0,0,0-.75.34L16,25.71l-3.15-3.64a1,1,0,0,0-.75-.34H6.52v-14h19Z"/><path class="cls-1" d="M16,14.29A4.75,4.75,0,0,0,11.25,19v.25a1,1,0,0,0,1,1h7.5a1,1,0,0,0,1-1V19A4.75,4.75,0,0,0,16,14.29Zm-2.65,4a2.76,2.76,0,0,1,5.3,0Z"/><path class="cls-1" d="M16,14.16a2.38,2.38,0,1,0-2.37-2.38A2.39,2.39,0,0,0,16,14.16Zm0-2.75a.38.38,0,1,1,0,.75.38.38,0,0,1,0-.75Z"/></svg>