<svg id="Layer_1" data-name="Layer 1" xmlns="http://www.w3.org/2000/svg" viewBox="0 0 32 32"><defs><style>.cls-1{fill:#FFFFFF;}</style></defs><title>Prev</title><path class="cls-1" d="M15.67,6.13A9.87,9.87,0,1,0,25.53,16,9.88,9.88,0,0,0,15.67,6.13Zm0,17.74A7.87,7.87,0,1,1,23.53,16,7.88,7.88,0,0,1,15.67,23.87Z"/><path class="cls-1" d="M18,12a1,1,0,0,0-1.4-.15l-4.19,3.37s0,.06-.07.08-.06,0-.08.07,0,.06,0,.09a.56.56,0,0,0-.09.17.64.64,0,0,0-.06.18,1.81,1.81,0,0,0,0,.38.64.64,0,0,0,.06.18.56.56,0,0,0,.09.17s0,.06,0,.09l.08.06.07.09,4.19,3.37a1,1,0,0,0,.62.22A1,1,0,0,0,18,20a1,1,0,0,0-.15-1.41L14.58,16l3.22-2.59A1,1,0,0,0,18,12Z"/></svg>