<svg id="Layer_1" data-name="Layer 1" xmlns="http://www.w3.org/2000/svg" viewBox="0 0 32 32"><defs><style>.cls-1{fill:#747987;}</style></defs><title>Question</title><path class="cls-1" d="M25.18,14.85a9.18,9.18,0,1,0-7.39,9l4.79,2.37a1,1,0,0,0,1-.07,1,1,0,0,0,.44-.9l-.39-5.31A9.15,9.15,0,0,0,25.18,14.85ZM21.8,19.07a1,1,0,0,0-.19.66l.29,3.92L18.36,21.9a1,1,0,0,0-.45-.1.91.91,0,0,0-.23,0A7.62,7.62,0,0,1,16,22a7.2,7.2,0,1,1,5.8-3Z"/><path class="cls-1" d="M15.93,10.85a2.49,2.49,0,0,0-2.61,2.48h1.91a.69.69,0,1,1,1.38,0,1.4,1.4,0,0,1-.62,1,2.33,2.33,0,0,0-1,1.92v.25h1.85v-.25c0-.42.3-.71.66-1a2.32,2.32,0,0,0,1-1.9A2.49,2.49,0,0,0,15.93,10.85Z"/><path class="cls-1" d="M15.93,17.08a1.16,1.16,0,1,0,0,2.31,1.16,1.16,0,1,0,0-2.31Z"/></svg>