<svg id="Layer_1" data-name="Layer 1" xmlns="http://www.w3.org/2000/svg" viewBox="0 0 32 32"><defs><style>.cls-1{fill:#747987;}</style></defs><title>Quote</title><path class="cls-1" d="M9.94,8.85a5.19,5.19,0,0,0-2.57,9.66c-.1.85-.46,2.35-1.68,2.68A1,1,0,0,0,5,22.27a1,1,0,0,0,1,.88H6a9.47,9.47,0,0,0,7.38-3.67,7.38,7.38,0,0,0,1.43-6.94A5.1,5.1,0,0,0,9.94,8.85Zm1.87,9.44a6.91,6.91,0,0,1-2.9,2.25,7.7,7.7,0,0,0,.51-2.64A1,1,0,0,0,8.79,17a3.19,3.19,0,0,1,1.15-6.14,3.14,3.14,0,0,1,3,2.31A5.62,5.62,0,0,1,11.81,18.29Z"/><path class="cls-1" d="M21.94,8.85a5.19,5.19,0,0,0-2.57,9.66c-.1.85-.46,2.35-1.68,2.68A1,1,0,0,0,17,22.27a1,1,0,0,0,1,.88H18a9.47,9.47,0,0,0,7.38-3.67,7.38,7.38,0,0,0,1.43-6.94A5.1,5.1,0,0,0,21.94,8.85Zm1.87,9.44a6.91,6.91,0,0,1-2.9,2.25,7.7,7.7,0,0,0,.51-2.64,1,1,0,0,0-.63-.91,3.19,3.19,0,0,1,1.15-6.14,3.14,3.14,0,0,1,3,2.31A5.62,5.62,0,0,1,23.81,18.29Z"/></svg>