<svg id="Layer_1" data-name="Layer 1" xmlns="http://www.w3.org/2000/svg" viewBox="0 0 32 32"><defs><style>.cls-1{fill:#747987;}</style></defs><title>Repeat</title><path class="cls-1" d="M25.1,12.06h-.32V8.58a1,1,0,0,0-1-1H8.22a1,1,0,0,0-1,1v2.94a1,1,0,1,0,2,0V9.58H22.78v2.48h-.33a1,1,0,0,0-.88,1.47L22.9,16a1,1,0,0,0,.88.52,1,1,0,0,0,.88-.52L26,13.53a1,1,0,0,0,0-1A1,1,0,0,0,25.1,12.06Z"/><path class="cls-1" d="M23.78,19.48a1,1,0,0,0-1,1v1.94H9.22V19.94h.33a1,1,0,0,0,.88-1.47L9.1,16a1,1,0,0,0-1.76,0L6,18.47a1,1,0,0,0,0,1,1,1,0,0,0,.86.48h.32v3.48a1,1,0,0,0,1,1H23.78a1,1,0,0,0,1-1V20.48A1,1,0,0,0,23.78,19.48Z"/></svg>