<svg id="Layer_1" data-name="Layer 1" xmlns="http://www.w3.org/2000/svg" viewBox="0 0 32 32"><defs><style>.cls-1{fill:#747987;}</style></defs><title>Reward</title><path class="cls-1" d="M21.46,18.33a8.55,8.55,0,1,0-10.93,0L7.38,25.52a1,1,0,0,0,.14,1,1,1,0,0,0,1,.35l2.39-.51,1.42,2a1,1,0,0,0,.81.42h.11a1,1,0,0,0,.81-.59L16,23.81l2,4.39a1,1,0,0,0,.81.58h.1a1,1,0,0,0,.81-.42l1.42-2,2.39.51a1,1,0,0,0,1-.35,1,1,0,0,0,.14-1Zm-8.55,7.45-.78-1.09a1,1,0,0,0-.81-.41.75.75,0,0,0-.21,0L10,24.54l2.07-4.7L15,21Zm-3.48-14A6.56,6.56,0,1,1,16,18.32,6.56,6.56,0,0,1,9.43,11.76ZM20.89,24.3a1,1,0,0,0-1,.39l-.8,1.11-1.92-4.22a1,1,0,0,0-.12-.17l.23-.53,2.68-1L22,24.54Z"/><path class="cls-1" d="M20.68,10.25a1,1,0,0,0-.81-.68l-2.05-.3L16.9,7.41A1,1,0,0,0,16,6.85a1,1,0,0,0-.9.56l-.92,1.86-2,.3a1,1,0,0,0-.55,1.7l1.48,1.45-.35,2a1,1,0,0,0,.4,1,1.06,1.06,0,0,0,.59.19.93.93,0,0,0,.46-.12l1.84-1,1.83,1a1,1,0,0,0,1.45-1.05l-.35-2,1.48-1.45A1,1,0,0,0,20.68,10.25Zm-3.51,1.4a1,1,0,0,0-.29.89l.1.56-.51-.27a1,1,0,0,0-.93,0l-.5.27.09-.56a1,1,0,0,0-.28-.89l-.41-.4.56-.08a1,1,0,0,0,.75-.55l.26-.51.25.51a1,1,0,0,0,.75.55l.57.08Z"/></svg>