<svg id="Layer_1" data-name="Layer 1" xmlns="http://www.w3.org/2000/svg" viewBox="0 0 32 32"><defs><style>.cls-1{fill:#747987;}</style></defs><title>Save</title><path class="cls-1" d="M26.88,12.18a1.18,1.18,0,0,0-.11-.19s0-.09-.07-.13L20.13,4.44l0,0a.7.7,0,0,0-.17-.13.61.61,0,0,0-.14-.1l-.17,0-.21-.05H6.05a1,1,0,0,0-1,1V26.9a1,1,0,0,0,1,1H26a1,1,0,0,0,1-1V12.53a.58.58,0,0,0,0-.14A1.12,1.12,0,0,0,26.88,12.18ZM18.38,6.1V9.45a.58.58,0,0,1-.59.59H17V6.1ZM15,6.1V10H11.45a.58.58,0,0,1-.59-.59V6.1ZM10.71,25.9V18a.38.38,0,0,1,.38-.37h9.82a.38.38,0,0,1,.38.37V25.9Zm12.58,0V18a2.38,2.38,0,0,0-2.38-2.37H11.09A2.38,2.38,0,0,0,8.71,18V25.9H7.05V6.1H8.86V9.45A2.59,2.59,0,0,0,11.45,12h6.34a2.59,2.59,0,0,0,2.59-2.59V7.74L25,12.91v13Z"/><path class="cls-1" d="M19.1,19.46H12.68a1,1,0,0,0,0,2H19.1a1,1,0,0,0,0-2Z"/><path class="cls-1" d="M19.1,22.46H12.68a1,1,0,0,0,0,2H19.1a1,1,0,0,0,0-2Z"/></svg>