<svg id="Layer_1" data-name="Layer 1" xmlns="http://www.w3.org/2000/svg" viewBox="0 0 32 32"><defs><style>.cls-1{fill:#747987;}</style></defs><title>Setting</title><path class="cls-1" d="M26.9,13.22l-3.19-.34-.06-.12,2-2.5a1,1,0,0,0-.07-1.34L23.08,6.4a1,1,0,0,0-1.34-.07l-2.5,2-.12-.06L18.78,5.1a1,1,0,0,0-1-.89H14.21a1,1,0,0,0-1,.89l-.34,3.19-.12.06-2.5-2a1,1,0,0,0-1.34.07L6.4,8.92a1,1,0,0,0-.07,1.34l2,2.5-.06.12-3.19.34a1,1,0,0,0-.89,1v3.58a1,1,0,0,0,.89,1l3.19.34.06.12-2,2.5a1,1,0,0,0,.07,1.34L8.92,25.6a1,1,0,0,0,1.34.07l2.5-2,.12.06.34,3.19a1,1,0,0,0,1,.89h3.58a1,1,0,0,0,1-.89l.34-3.19.12-.06,2.5,2a1,1,0,0,0,1.34-.07l2.52-2.52a1,1,0,0,0,.07-1.34l-2-2.5.06-.12,3.19-.34a1,1,0,0,0,.89-1V14.21A1,1,0,0,0,26.9,13.22Zm-1.11,3.67-2.92.3a1,1,0,0,0-.84.7,6.51,6.51,0,0,1-.44,1A1,1,0,0,0,21.7,20l1.85,2.29L22.3,23.55,20,21.7a1,1,0,0,0-1.09-.11,6.51,6.51,0,0,1-1,.44,1,1,0,0,0-.7.84l-.3,2.92H15.11l-.3-2.92a1,1,0,0,0-.7-.84,6.51,6.51,0,0,1-1-.44A1,1,0,0,0,12,21.7L9.7,23.55,8.45,22.3,10.3,20a1,1,0,0,0,.11-1.09,6.51,6.51,0,0,1-.44-1,1,1,0,0,0-.84-.7l-2.92-.3V15.11l2.92-.3a1,1,0,0,0,.84-.7,6.51,6.51,0,0,1,.44-1A1,1,0,0,0,10.3,12L8.45,9.7,9.7,8.45,12,10.3a1,1,0,0,0,1.09.11,6.51,6.51,0,0,1,1-.44,1,1,0,0,0,.7-.84l.3-2.92h1.78l.3,2.92a1,1,0,0,0,.7.84,6.51,6.51,0,0,1,1,.44A1,1,0,0,0,20,10.3L22.3,8.45,23.55,9.7,21.7,12a1,1,0,0,0-.11,1.09,6.51,6.51,0,0,1,.44,1,1,1,0,0,0,.84.7l2.92.3Z"/><path class="cls-1" d="M16,12.21A3.79,3.79,0,1,0,19.79,16,3.79,3.79,0,0,0,16,12.21Zm0,5.58A1.79,1.79,0,1,1,17.79,16,1.79,1.79,0,0,1,16,17.79Z"/></svg>