<svg id="Layer_1" data-name="Layer 1" xmlns="http://www.w3.org/2000/svg" viewBox="0 0 32 32"><defs><style>.cls-1{fill:#747987;}</style></defs><title>Share</title><path class="cls-1" d="M21.14,12.14a3.27,3.27,0,1,0-3.26-3.26,3.51,3.51,0,0,0,.11.8l-5.35,3.59a3.26,3.26,0,1,0-1.78,6A3.21,3.21,0,0,0,12.17,19L18,22.46a2.84,2.84,0,0,0-.07.66A3.29,3.29,0,1,0,19,20.72L13.7,17.57A3.23,3.23,0,0,0,14.12,16a3.19,3.19,0,0,0-.22-1.16l5.16-3.47A3.27,3.27,0,0,0,21.14,12.14Zm0-4.53a1.27,1.27,0,1,1-1.26,1.27A1.27,1.27,0,0,1,21.14,7.61ZM10.86,17.26A1.26,1.26,0,1,1,12.12,16,1.26,1.26,0,0,1,10.86,17.26Zm10.28,4.6a1.27,1.27,0,1,1-1.26,1.26A1.27,1.27,0,0,1,21.14,21.86Z"/></svg>