<svg id="Layer_1" data-name="Layer 1" xmlns="http://www.w3.org/2000/svg" viewBox="0 0 32 32"><defs><style>.cls-1{fill:#747987;}</style></defs><title>Shuffle</title><path class="cls-1" d="M22.46,13.93a1,1,0,0,0,.5.14,1,1,0,0,0,.5-.14l2.72-1.56a1,1,0,0,0,0-1.74L23.46,9.07a1,1,0,0,0-1,0,1,1,0,0,0-.5.86v.57h-3.6l-.2,0a.85.85,0,0,0-.17.06.49.49,0,0,0-.15.1.7.7,0,0,0-.16.13l-.05,0-2.75,3.5-2.75-3.5a.1.1,0,0,1-.05,0l-.16-.13a.49.49,0,0,0-.15-.1.85.85,0,0,0-.17-.06l-.2,0H6.32a1,1,0,0,0,0,2h4.53L13.61,16l-2.76,3.5H6.32a1,1,0,0,0,0,2h5a1.12,1.12,0,0,0,.41-.09.47.47,0,0,1,.09-.06,1,1,0,0,0,.24-.2l.05,0,2.75-3.5,2.75,3.5,0,0a1.22,1.22,0,0,0,.25.2.47.47,0,0,1,.09.06,1.12,1.12,0,0,0,.41.09H22v.57a1,1,0,0,0,.5.86,1,1,0,0,0,.5.14,1,1,0,0,0,.5-.14l2.72-1.56a1,1,0,0,0,0-1.74l-2.72-1.56a1,1,0,0,0-1,0,1,1,0,0,0-.5.86v.57H18.91L16.15,16l2.76-3.5H22v.57A1,1,0,0,0,22.46,13.93Z"/></svg>