<svg id="Layer_1" data-name="Layer 1" xmlns="http://www.w3.org/2000/svg" viewBox="0 0 32 32"><defs><style>.cls-1{fill:#747987;}</style></defs><title>Smile Emoticon</title><path class="cls-1" d="M16,4.4A11.6,11.6,0,1,0,27.6,16,11.61,11.61,0,0,0,16,4.4Zm0,21.2A9.6,9.6,0,1,1,25.6,16,9.62,9.62,0,0,1,16,25.6Z"/><path class="cls-1" d="M21,16a1,1,0,0,0-1,1,3.95,3.95,0,0,1-7.9,0,1,1,0,0,0-2,0A5.95,5.95,0,0,0,22,17,1,1,0,0,0,21,16Z"/><path class="cls-1" d="M12.1,13.54a1.92,1.92,0,1,0-1.92-1.91A1.92,1.92,0,0,0,12.1,13.54Zm0-2a.09.09,0,0,1,.08.09c0,.09-.17.09-.17,0A.09.09,0,0,1,12.1,11.54Z"/><path class="cls-1" d="M19.9,13.54A1.92,1.92,0,1,0,18,11.63,1.92,1.92,0,0,0,19.9,13.54Zm0-2a.09.09,0,0,1,.09.09c0,.09-.17.09-.17,0A.09.09,0,0,1,19.9,11.54Z"/></svg>