<svg id="Layer_1" data-name="Layer 1" xmlns="http://www.w3.org/2000/svg" viewBox="0 0 32 32"><defs><style>.cls-1{fill:#747987;}</style></defs><title>Star</title><path class="cls-1" d="M25.19,13l-5.73-.83L16.9,7a1,1,0,0,0-1.8,0l-2.56,5.2L6.81,13a1,1,0,0,0-.81.68,1,1,0,0,0,.25,1l4.15,4-1,5.71a1,1,0,0,0,.4,1,1,1,0,0,0,1,.08L16,22.79l5.13,2.7a.93.93,0,0,0,.46.12,1,1,0,0,0,1-1.17l-1-5.71,4.15-4a1,1,0,0,0,.25-1A1,1,0,0,0,25.19,13Zm-5.36,4.68a1,1,0,0,0-.29.89l.72,4.23-3.79-2a1.06,1.06,0,0,0-.94,0l-3.79,2,.72-4.23a1,1,0,0,0-.29-.89l-3.07-3,4.25-.62a1,1,0,0,0,.75-.55L16,9.65l1.9,3.85a1,1,0,0,0,.75.55l4.25.62Z"/></svg>