<svg id="Layer_1" data-name="Layer 1" xmlns="http://www.w3.org/2000/svg" viewBox="0 0 32 32"><defs><style>.cls-1{fill:#747987;}</style></defs><title>Ticket</title><path class="cls-1" d="M27.46,17.15a1,1,0,0,0-1.06-.77,1.34,1.34,0,0,1-1.41-1h0a1.31,1.31,0,0,1,.8-1.53,1,1,0,0,0,.6-1.16L25.75,10a1,1,0,0,0-1.2-.74l-.64.15L23.33,7a1,1,0,0,0-.53-.66,1,1,0,0,0-.85,0L4.47,14s-.06,0-.09.06a.91.91,0,0,0-.16.11.93.93,0,0,0-.13.15L4,14.41a.41.41,0,0,0,0,.08,1.07,1.07,0,0,0-.07.19.57.57,0,0,0,0,.18.67.67,0,0,0,0,.2.4.4,0,0,0,0,.11l.64,2.7a1,1,0,0,0,1.06.77,1.3,1.3,0,0,1,1.41,1,1.32,1.32,0,0,1-.8,1.53,1,1,0,0,0-.6,1.16l.64,2.71a1,1,0,0,0,1,.77.85.85,0,0,0,.23,0l13.8-3.28h0l6.1-1.45a1,1,0,0,0,.74-1.21Zm-5.8-8.56L22,9.84,15.2,11.45Zm.11,11.74-.23-1a1,1,0,0,0-1.95.46l.23,1L8,23.61l-.24-1a3.31,3.31,0,0,0-1.4-5.91l-.24-1,11.86-2.81.23,1a1,1,0,0,0,1,.77.85.85,0,0,0,.23,0,1,1,0,0,0,.75-1.2l-.24-1,4.16-1,.24,1A3.33,3.33,0,0,0,23,15.83h0a3.35,3.35,0,0,0,2.64,2.5l.24,1Z"/><path class="cls-1" d="M20.59,15.37a1,1,0,0,0-1.2-.74,1,1,0,0,0-.75,1.2l.48,2a1,1,0,0,0,1,.77.91.91,0,0,0,.23,0,1,1,0,0,0,.74-1.21Z"/></svg>