<svg id="Layer_1" data-name="Layer 1" xmlns="http://www.w3.org/2000/svg" viewBox="0 0 32 32"><defs><style>.cls-1{fill:#747987;}</style></defs><title>Video</title><path class="cls-1" d="M21.42,8H10.58A4.59,4.59,0,0,0,6,12.57v6.86A4.59,4.59,0,0,0,10.58,24H21.42A4.59,4.59,0,0,0,26,19.43V12.57A4.59,4.59,0,0,0,21.42,8ZM24,19.43A2.59,2.59,0,0,1,21.42,22H10.58A2.59,2.59,0,0,1,8,19.43V12.57A2.59,2.59,0,0,1,10.58,10H21.42A2.59,2.59,0,0,1,24,12.57Z"/><path class="cls-1" d="M18.83,14.55h0l-4-2.3a1.68,1.68,0,0,0-2.51,1.45v4.6a1.66,1.66,0,0,0,.84,1.45,1.63,1.63,0,0,0,1.67,0l4-2.3a1.67,1.67,0,0,0,0-2.9Zm-4.5,3.18V14.27l3,1.73Z"/></svg>