<svg id="Layer_1" data-name="Layer 1" xmlns="http://www.w3.org/2000/svg" viewBox="0 0 32 32"><defs><style>.cls-1{fill:#747987;}</style></defs><title>Warning</title><path class="cls-1" d="M17.66,6.26a1.92,1.92,0,0,0-3.32,0L4.2,23.81a1.93,1.93,0,0,0,0,1.92,1.91,1.91,0,0,0,1.66,1H26.14a1.91,1.91,0,0,0,1.66-1,1.93,1.93,0,0,0,0-1.92ZM6,24.69,16,7.38,26,24.69Z"/><path class="cls-1" d="M14.57,12.82a1,1,0,0,0-.24.8L15,18.5a1,1,0,0,0,2,0l.68-4.88a1,1,0,0,0-1-1.14H15.32A1,1,0,0,0,14.57,12.82Z"/><circle class="cls-1" cx="16" cy="21.48" r="1.25"/></svg>