<svg id="Layer_1" data-name="Layer 1" xmlns="http://www.w3.org/2000/svg" viewBox="0 0 32 32"><defs><style>.cls-1{fill:#747987;}</style></defs><title>Wifi</title><path class="cls-1" d="M15.8,20.53A2.44,2.44,0,1,0,18.24,23,2.45,2.45,0,0,0,15.8,20.53Z"/><path class="cls-1" d="M15.8,15.23a7.78,7.78,0,0,0-5.66,2.46,1,1,0,0,0,1.47,1.36,5.72,5.72,0,0,1,8.72.41,1,1,0,0,0,.8.39,1,1,0,0,0,.79-1.61A7.7,7.7,0,0,0,15.8,15.23Z"/><path class="cls-1" d="M15.68,10.93a11.69,11.69,0,0,0-8.5,3.69A1,1,0,0,0,8.64,16a9.63,9.63,0,0,1,14.66.68,1,1,0,0,0,.79.39,1,1,0,0,0,.79-1.61A11.57,11.57,0,0,0,15.68,10.93Z"/><path class="cls-1" d="M28,12.71A15.78,15.78,0,0,0,4,11.59a1,1,0,0,0,0,1.41A1,1,0,0,0,5.49,13a13.79,13.79,0,0,1,21,1,1,1,0,0,0,.79.39A1,1,0,0,0,28,12.71Z"/></svg>