<svg id="Layer_1" data-name="Layer 1" xmlns="http://www.w3.org/2000/svg" viewBox="0 0 32 32"><defs><style>.cls-1{fill:#747987;}</style></defs><title>Write</title><path class="cls-1" d="M19.45,10.25a1,1,0,0,0-1-1h-9a1,1,0,0,0,0,2h9A1,1,0,0,0,19.45,10.25Z"/><path class="cls-1" d="M17.45,13.92a1,1,0,0,0-1-1h-7a1,1,0,0,0,0,2h7A1,1,0,0,0,17.45,13.92Z"/><path class="cls-1" d="M15.45,17.58a1,1,0,0,0-1-1h-5a1,1,0,0,0,0,2h5A1,1,0,0,0,15.45,17.58Z"/><path class="cls-1" d="M9.49,20.25a1,1,0,0,0,0,2h3a1,1,0,1,0,0-2Z"/><path class="cls-1" d="M12.66,23.87H7.14V7.32H20.41v.89a1,1,0,0,0,2,0V6.32a1,1,0,0,0-1-1H6.14a1,1,0,0,0-1,1V24.87a1,1,0,0,0,1,1h6.52a1,1,0,0,0,0-2Z"/><path class="cls-1" d="M24.93,9.88a3.27,3.27,0,0,0-2.11-.48A2.51,2.51,0,0,0,21,10.54l-1,1.62h0l-5.54,9s0,0,0,.05a1.89,1.89,0,0,0-.12.39s0,0,0,.06l-.14,4a1,1,0,0,0,1,1,1,1,0,0,0,.47-.12l3.55-1.94a0,0,0,0,0,0,0,.85.85,0,0,0,.25-.21.46.46,0,0,0,.07-.07l0-.06,5.54-9h0l1-1.61a2.5,2.5,0,0,0,.2-2.14A3.21,3.21,0,0,0,24.93,9.88ZM18,23l-1.77,1,.07-2,4.87-7.88,1.7,1Zm6.4-10.34-.48.76-1.7-1.05.48-.77a.53.53,0,0,1,.38-.2,1.21,1.21,0,0,1,.8.19,1.28,1.28,0,0,1,.53.63A.56.56,0,0,1,24.4,12.65Z"/></svg>